<?xml version="1.0" encoding="UTF-8"?>
<svg id="Layer_2" data-name="Layer 2" xmlns="http://www.w3.org/2000/svg" viewBox="0 0 85.9 85.94">
  <g id="Layer_1-2" data-name="Layer 1">
    <g>
      <path d="M73.65,25.49c3.84-3.93,3.24-10.03.47-13.32-3.31-3.92-9.65-4.08-13.55-.35l-9.5,9.09-6.63-6.61,10.22-9.34c7.56-6.91,18.93-6.43,25.58.38s7.34,18.94.1,26.28l-28.88,29.24-6.4-6.13,28.6-29.23Z"/>
      <path d="M25.49,11.86c-3.57-3.6-9.31-3.46-12.76-.53-2.91,2.47-5.03,8.79-1.62,12.5l10,10.89-6.26,6.48-10.68-11.51C-2.64,22.36-.6,10.81,6.68,4.59c6.99-5.97,17.97-6.44,24.92.59l28.99,29.32-6.27,6.45L25.49,11.86Z"/>
      <path d="M34.92,64.76l6.19,6.48-9.69,9.5c-7.43,7.29-19.2,6.73-26.17-.58s-6.69-18.61.63-26.06l28.61-29.12,6.37,6.45-28.52,29.08c-3.76,3.83-3.44,10-.68,13.26,3.58,4.22,10.07,4.06,13.99.18l9.26-9.18Z"/>
      <path d="M71.13,45l11.21,12.48c6.41,7.13,3.51,18.5-3.42,24.24s-17.96,5.69-24.72-1.13l-28.84-29.11,6.05-6.4,29.05,29.25c3.5,3.52,9.89,3.08,13.08.09,3.42-3.21,3.98-9.54.29-13.45l-8.94-9.49,6.25-6.48Z"/>
    </g>
  </g>
</svg>