<svg xmlns="http://www.w3.org/2000/svg" viewBox="0 0 512 512">
  <ellipse fill="#E31B1E" cx="256" cy="256" rx="256" ry="253.48" />
  <path fill="#FFF" d="M388 270.45c-7.43-11.22-16.27-19.36-26.37-24.41 19.78-16.55 29.6-38.44 29.6-65.65 0-24.55-9.82-44.89-29.32-60.46-19.36-15.71-43.77-23.85-73.08-23.85H149.39V415.9h141.12c34.09 0 59.34-7.15 75.89-21.74 23-20.34 34.51-47.69 34.51-81.92-.15-14.86-4.36-28.89-12.91-41.79ZM227.95 160.61h54.99c5.47 0 9.96 1.12 13.47 2.38 5.33 1.96 8.56 4.91 10.94 8.7 2.38 3.79 4.07 8.98 4.07 16.13 0 6.17-.98 10.38-2.38 13.33-2.1 4.35-4.63 6.45-8.84 8.56-4.21 1.96-10.38 2.81-17.25 2.81h-54.99v-51.91Zm87.25 174.93c-1.4 3.37-3.23 5.75-5.05 7.72-2.95 2.81-6.59 4.91-11.22 6.17-4.63 1.4-10.24 1.96-15.99 1.96h-54.99v-60.32h54.99c10.52 0 20.34 2.81 26.37 7.01 3.09 2.1 5.19 4.49 6.73 7.15 1.54 2.67 2.38 6.03 2.52 10.52 0 8.98-1.4 15.3-3.36 19.79Z" />
</svg>
