<svg xmlns="http://www.w3.org/2000/svg" viewBox="0 0 49.25 49.25">
  <rect fill="#93D500" width="49.25" height="49.25" />
  <path fill="#FFF" d="M36.35 46.79h-5.44a.39.39 0 0 1-.27-.68l10.59-9.83a3.64 3.64 0 0 0 1.15-2.65v-4.8a2.14 2.14 0 0 0-2.14-2.14H35.1a3 3 0 0 0-2 .77L21.35 38.07a.36.36 0 0 1-.26.11h-2.64a.4.4 0 0 1-.4-.4V35.2a.41.41 0 0 1 .13-.29l12.39-11.32a5.89 5.89 0 0 1 4-1.53h5.88a6.5 6.5 0 0 1 6.51 6.51v4.8a8.74 8.74 0 0 1-2.83 6.45l-7.47 6.87a.43.43 0 0 1-.27.1" />
  <path fill="#FFF" d="M19.84 22.16 12.37 29a8.74 8.74 0 0 0-2.83 6.45v4.8a6.5 6.5 0 0 0 6.51 6.51h5.88a5.86 5.86 0 0 0 4-1.54l12.35-11.29a.39.39 0 0 0 .13-.29v-2.57a.4.4 0 0 0-.39-.4h-2.65a.42.42 0 0 0-.26.1L23.36 41.39a3 3 0 0 1-2 .77h-5.14A2.14 2.14 0 0 1 14.08 40v-4.8a3.64 3.64 0 0 1 1.15-2.65l10.59-9.83a.39.39 0 0 0-.27-.68h-5.44a.39.39 0 0 0-.27.1" />
</svg>
